<?xml version="1.0" encoding="UTF-8" standalone="no"?> <svg id="line" xmlns="http://www.w3.org/2000/svg" viewBox="0 0 64 64"><path d="M59.05243,30.41709H56.52V26.98842a4.45688,4.45688,0,0,0-7.13338-3.54007,4.44693,4.44693,0,0,0-8.73181,1.14915v5.81959H23.35364V24.59755a4.44694,4.44694,0,0,0-8.73175-1.14973,4.45764,4.45764,0,0,0-7.13344,3.54054v3.42873H4.94763a.96634.96634,0,0,0-.00006,1.93232H7.48845V37.0132a4.45475,4.45475,0,0,0,4.44961,4.44914,4.405,4.405,0,0,0,2.68165-.9227,4.43955,4.43955,0,0,0,8.73393-1.13558V32.34941H40.65485v7.05465a4.43956,4.43956,0,0,0,8.73394,1.13558,4.405,4.405,0,0,0,2.68164.9227A4.45475,4.45475,0,0,0,56.52,37.0132V32.34941h2.53239A.96634.96634,0,0,0,59.05243,30.41709ZM9.42077,37.0132V26.98836a2.51682,2.51682,0,1,1,5.03364,0V37.01308A2.517,2.517,0,0,1,9.42077,37.0132Zm12.00055,2.39086a2.5173,2.5173,0,0,1-5.03459,0V24.5975a2.5173,2.5173,0,0,1,5.03459,0Zm26.20044,0a2.5173,2.5173,0,0,1-5.03459,0V24.5975a2.5173,2.5173,0,0,1,5.03459,0V39.40406Zm6.966-2.391a2.517,2.517,0,0,1-5.03364.00012V26.98836a2.51682,2.51682,0,1,1,5.03364,0Z"/></svg>